<?xml version="1.0" encoding="iso-8859-1"?>
<!-- Uploaded to: SVG Repo, www.svgrepo.com, Generator: SVG Repo Mixer Tools -->
<svg height="800px" width="800px" version="1.1" id="Capa_1" xmlns="http://www.w3.org/2000/svg" xmlns:xlink="http://www.w3.org/1999/xlink" 
	 viewBox="0 0 20.994 20.994" xml:space="preserve">
<g>
	<g>
		<path style="fill:#010002;" d="M20.424,3.626H9.98l0.433,0.681c0.066,0.099,0.101,0.157,0.126,0.219
			c0.021,0.046,0.049,0.122,0.053,0.244h9.262v14.491H5.364V9.027C4.986,8.956,4.593,8.859,4.221,8.744v11.084
			c0,0.316,0.256,0.57,0.572,0.57h15.631c0.315,0,0.57-0.254,0.57-0.57V4.197C20.994,3.882,20.74,3.626,20.424,3.626z"/>
		<path style="fill:#010002;" d="M7.154,8.406c0.814-0.338,3.033-3.355,2.792-3.935C9.92,4.408,9.875,4.355,9.765,4.185L8.869,2.773
			L6.443,6.037L2.482,5.428c0,0,0.445,1.838,0.479,1.961C3.14,8.044,6.343,8.744,7.154,8.406z"/>
		<polygon style="fill:#010002;" points="10.04,0.596 4.433,1.093 0.122,4.742 6.327,5.686 		"/>
		<polygon style="fill:#010002;" points="0,8.492 0.311,9.554 0.62,8.494 0.25,4.923 		"/>
		<path style="fill:#010002;" d="M15.256,13.661v1.774l0.556,0.269c0.07,0.031,0.151,0.002,0.185-0.066l2.448-5.127
			c0.033-0.068,0.004-0.151-0.064-0.185l-5.925-2.83c-0.07-0.033-0.152-0.003-0.184,0.064l-1.289,2.698h0.701l0.947-1.982
			l5.135,2.453L16.16,14.09L15.256,13.661z"/>
		<path style="fill:#010002;" d="M8.001,10.724v5.682c0,0.074,0.062,0.139,0.14,0.139h6.564c0.077,0,0.139-0.064,0.139-0.139v-5.682
			c0-0.075-0.062-0.139-0.139-0.139H8.141C8.064,10.585,8.001,10.646,8.001,10.724z M8.636,11.213h5.689v3.727h-0.416
			c-0.242-0.621-0.54-1.491-0.994-1.374c-0.528,0.135-0.793,1.374-0.793,1.374s-0.272-1.398-1.021-2.147
			c-0.748-0.75-1.475,2.147-1.475,2.147h-0.99C8.636,14.94,8.636,11.213,8.636,11.213z"/>
		<circle style="fill:#010002;" cx="9.554" cy="12.013" r="0.464"/>
		<path style="fill:#010002;" d="M12.668,12.34c0.105,0,0.203-0.013,0.29-0.027c0.102,0.042,0.226,0.068,0.357,0.068
			c0.342,0,0.618-0.167,0.618-0.372c0-0.207-0.276-0.374-0.618-0.374c-0.128,0-0.248,0.024-0.347,0.065
			c-0.04-0.041-0.094-0.065-0.155-0.065h-0.091c-0.114,0-0.205,0.087-0.218,0.198c-0.277,0.029-0.481,0.13-0.481,0.248
			C12.022,12.225,12.313,12.34,12.668,12.34z"/>
	</g>
</g>
</svg>